<svg xmlns="http://www.w3.org/2000/svg" version="1.1" height="40px" width="50px" viewBox="-10 -10 70 60" content="&lt;mxGraphModel dx=&quot;884&quot; dy=&quot;478&quot; grid=&quot;1&quot; gridSize=&quot;10&quot; guides=&quot;1&quot; tooltips=&quot;1&quot; connect=&quot;1&quot; arrows=&quot;1&quot; fold=&quot;1&quot; page=&quot;0&quot; pageScale=&quot;1&quot; pageWidth=&quot;850&quot; pageHeight=&quot;1100&quot; math=&quot;0&quot; shadow=&quot;0&quot;&gt;&lt;root&gt;&lt;mxCell id=&quot;0&quot;/&gt;&lt;mxCell id=&quot;1&quot; parent=&quot;0&quot;/&gt;&lt;mxCell id=&quot;2&quot; value=&quot;&quot; style=&quot;points=[[0.015,0.14,0],[0.5,0,0],[0.985,0.14,0],[1,0.57,0],[0.99,0.98,0],[0.5,1,0],[0.01,0.98,0],[0,0.57,0]];verticalLabelPosition=bottom;sketch=0;html=1;verticalAlign=top;aspect=fixed;align=center;pointerEvents=1;shape=mxgraph.cisco19.tablet;fillColor=#005073;strokeColor=none;&quot; vertex=&quot;1&quot; parent=&quot;1&quot;&gt;&lt;mxGeometry x=&quot;180&quot; y=&quot;420&quot; width=&quot;50&quot; height=&quot;40&quot; as=&quot;geometry&quot;/&gt;&lt;/mxCell&gt;&lt;/root&gt;&lt;/mxGraphModel&gt;"><style type="text/css"></style><path d="M 33.62 11.04 L 44.19 11.04 L 44.19 11.67 L 33.62 11.67 Z M 15.59 11.04 L 26.16 11.04 L 26.16 11.67 L 15.59 11.67 Z M 5.81 13.48 C 7.63 13.48 9.02 18.06 9.02 23.77 C 9.02 28.88 7.84 34.06 5.81 34.06 Z M 15.59 13.48 L 44.19 13.48 L 44.19 34.06 L 15.59 34.06 Z M 6.25 3.21 C 5.45 3.21 4.72 2.52 4.72 1.61 C 4.72 0.75 5.37 0.01 6.25 0.01 L 24.86 0.01 C 25.26 0 25.53 0.14 25.77 0.28 L 42.59 0.28 L 42.59 0.61 L 45.28 1.59 L 42.59 2.58 L 42.59 2.88 L 25.77 2.88 C 25.53 3.06 25.16 3.21 24.86 3.21 Z M 2.28 5.09 C 1.03 5.09 0 6.01 0 7.14 L 0 37.94 C 0 39.07 1.03 40 2.28 40 L 47.72 40 C 48.97 40 50 39.07 50 37.94 L 50 7.14 C 50 6.01 48.97 5.09 47.72 5.09 Z M 2.28 5.88 L 47.72 5.88 C 48.5 5.88 49.12 6.44 49.12 7.14 L 49.12 37.94 C 49.12 38.65 48.5 39.2 47.72 39.2 L 2.28 39.2 C 1.5 39.2 0.88 38.65 0.88 37.94 L 0.88 7.14 C 0.88 6.44 1.5 5.88 2.28 5.88 Z" fill="#005073" stroke="none" pointer-events="none"/></svg>